<?xml version="1.0" standalone="no"?>
<!DOCTYPE svg PUBLIC "-//W3C//DTD SVG 20010904//EN"
 "http://www.w3.org/TR/2001/REC-SVG-20010904/DTD/svg10.dtd">
<svg version="1.0" xmlns="http://www.w3.org/2000/svg"
 width="442.000000pt" height="442.000000pt" viewBox="0 0 442.000000 442.000000"
 preserveAspectRatio="xMidYMid meet">
<metadata>
Created by potrace 1.11, written by Peter Selinger 2001-2013
</metadata>
<g transform="translate(0.000000,442.000000) scale(0.100000,-0.100000)"
fill="#000000" stroke="none">
<path d="M2649 4265 c-116 -23 -227 -111 -282 -225 -30 -61 -32 -72 -32 -175
0 -104 2 -114 32 -176 32 -65 82 -126 136 -164 l28 -20 -74 -215 c-41 -118
-93 -272 -116 -342 l-42 -127 -77 0 c-147 1 -261 -39 -371 -131 -51 -43 -63
-49 -83 -40 -13 5 -194 116 -403 247 l-380 238 0 95 c0 85 -3 101 -30 153 -83
164 -277 232 -437 154 -70 -34 -121 -86 -158 -160 -25 -51 -30 -72 -30 -136 0
-63 5 -86 29 -136 33 -71 94 -135 159 -167 39 -19 63 -23 142 -23 88 0 99 2
154 33 33 17 66 32 74 32 24 0 122 -57 447 -259 409 -255 366 -221 349 -278
-22 -71 -23 -256 -2 -318 34 -100 55 -76 -267 -312 -159 -117 -323 -237 -364
-267 l-74 -54 -60 39 c-91 59 -163 78 -277 75 -105 -4 -175 -25 -238 -73 -169
-128 -235 -315 -181 -508 30 -109 131 -225 244 -281 59 -29 83 -35 152 -38
174 -7 279 34 389 153 32 34 79 126 94 181 17 63 15 173 -4 246 -9 34 -16 64
-16 67 0 6 169 131 470 348 299 216 260 197 314 156 65 -50 148 -87 237 -105
70 -15 79 -19 83 -42 5 -21 22 -169 42 -340 2 -25 7 -61 9 -80 3 -19 7 -57 11
-85 3 -27 7 -61 9 -75 2 -14 9 -72 16 -129 l12 -105 -49 -40 c-73 -61 -100
-92 -124 -140 -78 -162 -6 -364 157 -446 68 -34 198 -33 273 1 64 30 131 90
159 146 64 122 40 295 -54 386 -33 32 -123 83 -176 100 -15 5 -23 44 -44 227
-10 88 -36 298 -40 325 -12 90 -35 299 -32 301 1 1 24 12 50 23 69 30 134 77
197 142 55 57 55 58 85 44 17 -8 158 -73 315 -144 l285 -130 1 -98 c2 -155 49
-265 153 -360 175 -161 447 -153 622 18 95 93 147 233 135 360 -21 202 -174
373 -366 407 -156 28 -290 -12 -407 -121 l-62 -58 -55 25 c-31 14 -82 38 -113
52 -173 79 -317 146 -384 177 l-77 36 3 88 c8 217 -32 320 -182 463 l-96 92
32 97 c125 367 193 558 204 568 7 6 45 14 85 17 322 22 487 401 290 664 -40
54 -133 122 -191 141 -48 15 -167 19 -228 6z"/>
</g>
</svg>
